# xmcd
#
# Track frame offsets:
#	150
#	14972
#	29479
#	45131
#	61019
#	77000
#	92938
#	108899
#	125025
#	141527
#	158451
#	175539
#	193161
#	211482
#
# Disc length: 3077 seconds
#
# Revision: 1
# Processed by: cddbd v1.5.2PL0 Copyright (c) Steve Scherf et al.
# Submitted via: audiograbber 1.83.01
#
DISCID=bc0c030e
DTITLE=Toby Keith vol.3 - Roq Stars Karoke
DYEAR=1900
DGENRE=
TTITLE0=Toby Keith - My List
TTITLE1=Toby Keith - Courtesy Of The Red, White And Blue
TTITLE2=Toby Keith - Beers Ago
TTITLE3=Toby Keith - Lost You Anyway
TTITLE4=Toby Keith - Love Me If You Can
TTITLE5=Toby Keith - Mockingbird
TTITLE6=Toby Keith - She Never Cried In Front Of Me
TTITLE7=Toby Keith and Mica Roberts - Things A Mama Don't Know
TTITLE8=Toby Keith - Every Dog Has It's Day
TTITLE9=Toby Keith - Rock You Baby
TTITLE10=Toby Keith - As Good As I Once Was
TTITLE11=Toby Keith - Whiskey Girl
TTITLE12=Toby Keith - American Soldier
TTITLE13=Toby Keith - Cryin' For Me (Wayman's Song)
EXTD=
EXTT0=
EXTT1=
EXTT2=
EXTT3=
EXTT4=
EXTT5=
EXTT6=
EXTT7=
EXTT8=
EXTT9=
EXTT10=
EXTT11=
EXTT12=
EXTT13=
PLAYORDER=
